<?xml version="1.0" encoding="UTF-8"?>
<svg id="Layer_2" data-name="Layer 2" xmlns="http://www.w3.org/2000/svg" xmlns:xlink="http://www.w3.org/1999/xlink" viewBox="0 0 1518.34 1323.53">
  <defs>
    <style>
      .cls-1 {
        fill: url(#linear-gradient-2);
      }

      .cls-2 {
        fill: url(#linear-gradient-3);
      }

      .cls-3 {
        clip-path: url(#clippath-1);
      }

      .cls-4 {
        clip-rule: evenodd;
        fill: none;
      }

      .cls-5 {
        fill: #396;
        fill-rule: evenodd;
      }

      .cls-6 {
        clip-path: url(#clippath-2);
      }

      .cls-7 {
        fill: url(#linear-gradient);
      }

      .cls-8 {
        clip-path: url(#clippath);
      }
    </style>
    <clipPath id="clippath">
      <path class="cls-4" d="M622.32,862.25c69.37,117.49,210.75,209.72,424.12,276.71-155.5-31.22-292.97-93.86-412.4-187.92,69.57,317.48,364.33,432.02,884.29,343.61-365.45-112.55-289.54-700.62-896.01-432.4"/>
    </clipPath>
    <linearGradient id="linear-gradient" x1="903.21" y1="233.33" x2="1395.42" y2="393.45" gradientTransform="translate(2166.08 1278.8) rotate(-180)" gradientUnits="userSpaceOnUse">
      <stop offset="0" stop-color="#3c3"/>
      <stop offset="1" stop-color="#cf6"/>
    </linearGradient>
    <clipPath id="clippath-1">
      <path class="cls-4" d="M559.77,951.62c-1.34-136.43-77.65-287-228.95-451.7,119.06,104.79,206.79,227.77,263.19,368.94C692.5,559.14,494.5,312.56,0,129.15c260.21,280.2-99.56,751.53,559.77,822.47"/>
    </clipPath>
    <linearGradient id="linear-gradient-2" x1="918.76" y1="1323.35" x2="572.53" y2="938.57" gradientTransform="translate(1025.58 1638.61) rotate(-180)" xlink:href="#linear-gradient"/>
    <clipPath id="clippath-2">
      <path class="cls-4" d="M549.95,896.01c117.48-69.37,209.72-210.75,276.71-424.12-31.22,155.5-93.86,292.97-187.92,412.4C956.22,814.72,1070.76,519.96,982.35,0c-112.55,365.45-700.62,289.54-432.4,896.01"/>
    </clipPath>
    <linearGradient id="linear-gradient-3" x1="519.38" y1="928.93" x2="679.48" y2="436.72" gradientTransform="translate(1252.54 1184.4) rotate(-180)" xlink:href="#linear-gradient"/>
  </defs>
  <g id="Layer_1-2" data-name="Layer 1">
    <g>
      <g class="cls-8">
        <rect class="cls-7" x="675.41" y="520.36" width="806.08" height="930.22" transform="translate(2.92 1974.13) rotate(-85.01)"/>
      </g>
      <g class="cls-3">
        <rect class="cls-1" x="-73.44" y="162.63" width="770.68" height="761.1" transform="translate(-256.35 806.65) rotate(-85.01)"/>
      </g>
      <g class="cls-6">
        <rect class="cls-2" x="208.06" y="36.85" width="930.22" height="806.08" transform="translate(176.41 1072.26) rotate(-85.01)"/>
      </g>
      <path class="cls-5" d="M455.7,940.4c7-80.24,77.73-139.61,157.97-132.6,80.24,7,139.6,77.73,132.6,157.97-7,80.24-77.73,139.61-157.97,132.6-80.24-7-139.61-77.73-132.6-157.97"/>
    </g>
  </g>
</svg>